# Blender v2.79 (sub 0) OBJ File: 'astroids.blend'
# www.blender.org
mtllib astrd_1.mtl
o GeoSpher33
v 2.551371 0.694071 -1.257433
v 2.791774 1.332284 0.151607
v 3.692522 0.238171 1.296449
v 4.298902 -1.435847 0.474203
v 3.581110 -0.997190 -0.979771
v 1.257597 -0.512186 -1.870637
v 0.652950 1.941706 -0.764677
v 1.533715 1.661470 1.760559
v 3.038915 -1.107143 1.959125
v 3.152793 -2.525110 -0.275861
v 1.299982 0.937528 -1.770443
v 1.560987 2.290364 0.492947
v 2.898538 0.218635 2.208767
v 4.095926 -2.169510 0.969175
v 2.772014 -1.837546 -1.435259
v -0.181799 1.612405 -0.675473
v 0.275607 1.349412 0.749854
v 1.303418 -0.342331 0.903487
v 1.288305 -1.163151 -0.464319
v 0.239891 -0.186031 -1.472301
v 2.205980 0.964866 2.116174
v 0.525050 -0.692114 -1.144196
v 2.940321 -0.534940 2.199516
v 1.213955 0.319760 -1.912203
v 3.808138 -2.469924 0.367477
v 3.298655 -1.489279 -1.279158
v 2.288783 -0.861862 1.652264
v 1.913684 -1.186868 -1.785266
v 3.682925 -1.667571 1.576609
v 3.314478 0.902105 0.801619
v 2.206561 1.872172 0.334272
v 0.884672 1.522034 1.448990
v 0.925576 1.424825 -1.403864
v 1.245522 -0.651169 0.162597
v 1.006280 2.299001 -0.197255
v 0.779927 -0.556823 -1.680965
v -0.174196 0.814634 -1.240125
v 4.347424 -2.010927 0.775925
v 3.441697 0.260127 1.908069
v 3.046223 -0.044948 -1.176477
v 1.900907 0.895750 -1.640615
v 0.549092 0.512566 0.779150
v 1.543991 2.216010 1.258985
v 4.049302 -0.597580 0.915968
v 2.711671 1.029012 -0.661783
v -0.149814 1.734462 -0.043824
v 2.302140 -2.037174 -0.274289
v 0.207075 1.855086 -0.607647
v 4.118193 -1.354281 -0.303472
v 3.022569 -2.466953 -0.946477
v 1.686558 1.699037 -0.966598
v 3.954454 -1.087297 1.756237
v 1.664962 0.214106 2.007800
v 1.608335 -1.817530 -1.353927
v 3.642487 0.048554 -0.150351
v 2.683644 1.527670 1.589098
v -0.158730 0.612521 -0.613867
v 2.221495 -0.175274 -1.846849
v 4.135535 -2.453969 -0.360056
v 0.400697 0.809933 -1.543724
v 2.934391 -1.765813 0.932763
v 0.488886 2.388061 0.549474
vt 0.632474 0.270951
vt 0.630721 0.373957
vt 0.668095 0.317734
vt 0.703627 0.398506
vt 0.734697 0.306691
vt 0.528941 0.221064
vt 0.592327 0.212534
vt 0.734642 0.210245
vt 0.623346 0.152394
vt 0.522571 0.103003
vt 0.481044 0.247835
vt 0.547475 0.332774
vt 0.454121 0.201843
vt 0.424690 0.322265
vt 0.472602 0.329800
vt 0.519827 0.441673
vt 0.473738 0.411926
vt 0.443162 0.447979
vt 0.585094 0.438608
vt 0.610197 0.488002
vt 0.878175 0.272930
vt 0.991676 0.274788
vt 0.899715 0.203878
vt 0.829319 0.283301
vt 0.913848 0.340778
vt 0.900576 0.501447
vt 0.980827 0.468010
vt 0.922223 0.444212
vt 0.853620 0.507208
vt 0.928857 0.546244
vt 0.072975 0.709834
vt 0.181138 0.730448
vt 0.109462 0.642435
vt 0.006948 0.708879
vt 0.103673 0.779583
vt 0.341817 0.375961
vt 0.344480 0.445800
vt 0.386848 0.344222
vt 0.315405 0.319432
vt 0.237203 0.402744
vt 0.303472 0.441886
vt 0.123037 0.453381
vt 0.134635 0.530913
vt 0.184876 0.489281
vt 0.127131 0.378819
vt 0.058677 0.460352
vt 0.944305 0.390746
vt 0.854878 0.404930
vt 0.994450 0.380193
vt 0.658966 0.099261
vt 0.734807 0.000000
vt 0.621156 0.042034
vt 0.734697 0.106858
vt 0.136686 0.852125
vt 0.027366 0.830114
vt 0.102515 0.922316
vt 0.205030 0.855871
vt 0.247356 0.491177
vt 0.245156 0.517046
vt 0.930171 0.135645
vt 0.818060 0.146514
vt 0.994450 0.143792
vt 0.900806 0.059676
vt 0.812178 0.495847
vt 0.758521 0.434381
vt 0.796261 0.537844
vt 0.796119 0.423192
vt 0.275089 0.018814
vt 0.283615 0.147081
vt 0.316972 0.088369
vt 0.400738 0.113739
vt 0.400738 0.000000
vt 0.200560 0.246699
vt 0.267311 0.234848
vt 0.397265 0.228230
vt 0.074720 0.192602
vt 0.133732 0.274881
vt 0.033349 0.337027
vt 0.793477 0.329069
vt 0.768210 0.287677
vt 0.506133 0.522165
vt 0.860137 0.580865
vt 0.013895 0.573127
vt 0.205030 1.000000
vt 1.000000 0.000000
vt 0.162173 0.071667
vn 0.6757 0.6124 -0.4103
vn 0.6952 0.3258 -0.6408
vn 0.6198 0.4873 -0.6151
vn 0.3435 0.0996 -0.9338
vn 0.3747 0.4778 -0.7945
vn 0.8016 0.5972 -0.0285
vn 0.6957 0.6835 -0.2207
vn 0.3573 0.7685 -0.5307
vn 0.5609 0.8133 -0.1546
vn 0.5419 0.7089 0.4515
vn 0.8736 0.4559 0.1700
vn 0.8482 0.4357 -0.3012
vn 0.6784 0.3564 0.6424
vn 0.7107 -0.0861 0.6982
vn 0.9496 0.3076 0.0601
vn 0.9043 0.1641 -0.3941
vn 0.9841 0.1664 -0.0619
vn 0.9149 -0.3330 0.2278
vn 0.7488 0.1657 -0.6417
vn 0.5580 -0.1151 -0.8218
vn -0.1890 -0.1876 -0.9639
vn -0.0044 -0.3127 -0.9498
vn -0.5135 -0.3632 -0.7774
vn -0.1288 0.0955 -0.9871
vn -0.1852 0.8021 -0.5677
vn -0.1418 0.6407 -0.7546
vn -0.4201 0.7833 -0.4581
vn 0.0564 0.9417 -0.3315
vn -0.2144 0.4500 0.8669
vn 0.0805 0.8770 0.4737
vn -0.6179 0.2066 0.7586
vn -0.0000 0.3033 0.9529
vn -0.1796 -0.5607 0.8083
vn 0.0040 -0.2174 0.9761
vn -0.5444 -0.6187 0.5664
vn -0.4549 -0.7595 0.4650
vn 0.1035 -0.6753 0.7302
vn -0.2487 -0.9579 0.1436
vn 0.6930 -0.6336 -0.3439
vn 0.0721 -0.9444 0.3207
vn -0.5503 -0.7784 0.3020
vn 0.0016 -0.8707 -0.4917
vn 0.0224 0.4328 -0.9012
vn -0.4005 0.2780 -0.8731
vn 0.3523 0.9330 -0.0724
vn -0.4831 0.8348 0.2639
vn 0.2139 0.1681 0.9622
vn -0.5163 -0.2397 0.8221
vn 0.3489 -0.7481 0.5644
vn 0.2185 -0.4056 -0.8875
vn -0.4954 -0.7776 -0.3871
vn -0.7888 0.5001 -0.3573
vn -0.9294 -0.3173 0.1883
vn -0.9169 0.3586 0.1752
vn -0.8375 0.0925 -0.5385
vn -0.7817 -0.3961 0.4816
vn -0.8381 -0.0406 0.5439
vn -0.6827 -0.6210 0.3850
vn -0.6827 -0.6130 0.3977
vn -0.7736 -0.6337 -0.0072
vn -0.6701 -0.6415 0.3734
vn -0.7530 -0.3410 -0.5627
usemtl Standard_1
s 1
f 45/1/1 40/2/2 1/3/3
f 1/3/3 58/4/4 41/5/5
f 41/5/5 45/1/1 1/3/3
f 30/6/6 45/1/1 2/7/7
f 2/7/7 51/8/8 31/9/9
f 2/7/7 56/10/10 30/6/6
f 3/11/11 55/12/12 30/6/6
f 30/6/6 39/13/13 3/11/11
f 3/11/11 52/14/14 44/15/15
f 49/16/16 44/15/15 4/17/17
f 4/17/17 52/14/14 38/18/18
f 38/18/18 49/16/16 4/17/17
f 5/19/19 55/12/12 49/16/16
f 49/16/16 26/20/20 5/19/19
f 5/19/19 58/4/4 40/2/2
f 6/21/21 58/22/4 28/23/22
f 28/23/22 36/24/23 6/21/21
f 36/24/23 24/25/24 6/21/21
f 7/26/25 51/27/8 33/28/26
f 33/28/26 48/29/27 7/26/25
f 48/29/27 35/30/28 7/26/25
f 8/31/29 56/32/10 43/33/30
f 43/33/30 32/34/31 8/31/29
f 32/34/31 21/35/32 8/31/29
f 9/36/33 52/37/14 23/38/34
f 23/38/34 27/39/35 9/36/33
f 9/36/33 61/40/36 29/41/37
f 10/42/38 59/43/39 25/44/40
f 10/42/38 61/40/36 47/45/41
f 47/45/41 50/46/42 10/42/38
f 11/47/43 60/48/44 33/28/26
f 33/28/26 41/49/5 11/47/43
f 41/49/5 24/25/24 11/47/43
f 12/50/45 62/51/46 43/52/30
f 43/52/30 31/9/9 12/50/45
f 31/9/9 35/53/28 12/50/45
f 13/54/47 53/55/48 23/56/34
f 23/56/34 39/57/13 13/54/47
f 39/57/13 21/35/32 13/54/47
f 14/58/49 61/40/36 25/44/40
f 25/44/40 38/59/18 14/58/49
f 38/59/18 29/41/37 14/58/49
f 15/60/50 54/61/51 28/23/22
f 28/23/22 26/62/20 15/60/50
f 26/62/20 50/63/42 15/60/50
f 16/64/52 57/65/53 46/66/54
f 46/66/54 48/29/27 16/64/52
f 16/64/52 60/48/44 37/67/55
f 46/68/54 42/69/56 17/70/57
f 42/69/56 32/71/31 17/70/57
f 17/70/57 62/72/46 46/68/54
f 42/69/56 34/73/58 18/74/59
f 34/73/58 27/39/35 18/74/59
f 18/74/59 53/75/48 42/69/56
f 34/73/58 22/76/60 19/77/61
f 19/77/61 54/78/51 47/45/41
f 47/45/41 34/73/58 19/77/61
f 20/79/62 57/65/53 37/67/55
f 20/79/62 60/48/44 36/24/23
f 36/24/23 22/80/60 20/79/62
f 45/1/1 55/12/12 40/2/2
f 1/3/3 40/2/2 58/4/4
f 41/5/5 51/8/8 45/1/1
f 30/6/6 55/12/12 45/1/1
f 2/7/7 45/1/1 51/8/8
f 2/7/7 31/9/9 56/10/10
f 3/11/11 44/15/15 55/12/12
f 30/6/6 56/10/10 39/13/13
f 3/11/11 39/13/13 52/14/14
f 49/16/16 55/12/12 44/15/15
f 4/17/17 44/15/15 52/14/14
f 38/18/18 59/81/39 49/16/16
f 5/19/19 40/2/2 55/12/12
f 49/16/16 59/81/39 26/20/20
f 5/19/19 26/20/20 58/4/4
f 6/21/21 24/25/24 58/22/4
f 28/23/22 54/61/51 36/24/23
f 36/24/23 60/48/44 24/25/24
f 7/26/25 35/30/28 51/27/8
f 33/28/26 60/48/44 48/29/27
f 48/29/27 62/82/46 35/30/28
f 8/31/29 21/35/32 56/32/10
f 43/33/30 62/83/46 32/34/31
f 32/34/31 53/55/48 21/35/32
f 9/36/33 29/41/37 52/37/14
f 23/38/34 53/75/48 27/39/35
f 9/36/33 27/39/35 61/40/36
f 10/42/38 50/46/42 59/43/39
f 10/42/38 25/44/40 61/40/36
f 47/45/41 54/78/51 50/46/42
f 11/47/43 24/25/24 60/48/44
f 33/28/26 51/27/8 41/49/5
f 41/49/5 58/22/4 24/25/24
f 12/50/45 35/53/28 62/51/46
f 43/52/30 56/10/10 31/9/9
f 31/9/9 51/8/8 35/53/28
f 13/54/47 21/35/32 53/55/48
f 23/56/34 52/84/14 39/57/13
f 39/57/13 56/32/10 21/35/32
f 14/58/49 29/41/37 61/40/36
f 25/44/40 59/43/39 38/59/18
f 38/59/18 52/37/14 29/41/37
f 15/60/50 50/63/42 54/61/51
f 28/23/22 58/22/4 26/62/20
f 26/62/20 59/85/39 50/63/42
f 16/64/52 37/67/55 57/65/53
f 46/66/54 62/82/46 48/29/27
f 16/64/52 48/29/27 60/48/44
f 46/68/54 57/86/53 42/69/56
f 42/69/56 53/75/48 32/71/31
f 17/70/57 32/71/31 62/72/46
f 42/69/56 57/86/53 34/73/58
f 34/73/58 61/40/36 27/39/35
f 18/74/59 27/39/35 53/75/48
f 34/73/58 57/86/53 22/76/60
f 19/77/61 22/76/60 54/78/51
f 47/45/41 61/40/36 34/73/58
f 20/79/62 22/80/60 57/65/53
f 20/79/62 37/67/55 60/48/44
f 36/24/23 54/61/51 22/80/60
