# Blender v2.79 (sub 0) OBJ File: ''
# www.blender.org
mtllib astrd_1.mtl
o GeoSpher33
v 3.523599 3.251989 1.674298
v 1.772336 3.113695 -0.318980
v 1.223464 5.080062 0.608415
v 2.493542 5.028334 3.908140
v 3.925709 1.797724 4.042941
v 4.312682 0.006280 1.441401
v -0.230570 3.982360 0.135268
v -0.168759 6.126229 2.698316
v 1.141648 3.193381 4.411251
v 2.914673 1.051001 3.159214
v 1.096311 0.730922 0.307832
v -1.280782 4.092160 0.876027
v 3.523599 3.251989 1.674298
v 3.523599 3.251989 1.674298
v 2.493542 5.028334 3.908140
v 3.523599 3.251989 1.674298
v 3.523599 3.251989 1.674298
v 2.493542 5.028334 3.908140
v -0.168759 6.126229 2.698316
v 2.493542 5.028334 3.908140
v -1.280782 4.092160 0.876027
v -0.168759 6.126229 2.698316
v -1.280782 4.092160 0.876027
v -1.280782 4.092160 0.876027
v -1.280782 4.092160 0.876027
v -73.676437 -188.336380 -100.532959
v 3.523599 3.251989 1.674298
v 1.772336 3.113695 -0.318980
v 1.223464 5.080062 0.608415
v 2.493542 5.028334 3.908140
v 3.925709 1.797724 4.042941
v 4.312682 0.006280 1.441401
v -0.230570 3.982360 0.135268
v -0.168759 6.126229 2.698316
v 1.141648 3.193381 4.411251
v 2.914673 1.051001 3.159214
v 1.096311 0.730922 0.307832
v -1.280782 4.092160 0.876027
v 3.523599 3.251989 1.674298
v 3.523599 3.251989 1.674298
v 2.493542 5.028334 3.908140
v 3.523599 3.251989 1.674298
v 3.523599 3.251989 1.674298
v 2.493542 5.028334 3.908140
v -0.168759 6.126229 2.698316
v 2.493542 5.028334 3.908140
v -1.280782 4.092160 0.876027
v -0.168759 6.126229 2.698316
v -1.280782 4.092160 0.876027
v -1.280782 4.092160 0.876027
v -1.280782 4.092160 0.876027
vt 218.787766 182.323135
vt 255.252380 118.069473
vt 182.323135 118.069473
vt 291.717010 182.323135
vt 328.181641 118.069473
vt 0.000003 182.323135
vt 36.464642 118.069473
vt -36.464634 118.069473
vt 72.929260 182.323135
vt 109.393883 118.069473
vt 145.858505 182.323135
vt 218.787750 64.253662
vt 145.858536 64.253662
vt 291.717010 64.253654
vt -36.464634 118.069473
vt 0.000014 64.253662
vt -72.929253 64.253654
vt 72.929253 64.253654
vt -36.464634 118.069473
vt 255.252380 0.000000
vt -36.464615 0.000000
vt -72.929253 64.253654
vt 36.464634 0.000000
vt 109.393898 0.000000
vt 182.323135 0.000000
vt 218.787766 182.323135
vt 182.323135 118.069473
vt 255.252380 118.069473
vt 291.717010 182.323135
vt 328.181641 118.069473
vt 0.000003 182.323135
vt -36.464634 118.069473
vt 36.464642 118.069473
vt 72.929260 182.323135
vt 109.393883 118.069473
vt 145.858505 182.323135
vt 145.858536 64.253662
vt 218.787750 64.253662
vt 291.717010 64.253654
vt -36.464634 118.069473
vt -72.929253 64.253654
vt 0.000014 64.253662
vt 72.929253 64.253654
vt -36.464634 118.069473
vt 255.252380 0.000000
vt -36.464615 0.000000
vt -72.929253 64.253654
vt 36.464634 0.000000
vt 109.393898 0.000000
vt 182.323135 0.000000
vn -0.6488 -0.4651 0.6023
vn -0.6705 -0.6996 0.2471
vn -0.9085 -0.4067 -0.0955
vn -0.9712 -0.2375 0.0191
vn -0.7246 -0.2230 0.6521
vn 0.2864 0.1669 0.9435
vn 0.3514 -0.7223 0.5957
vn 0.2308 -0.4118 -0.8816
vn 0.2085 0.6164 -0.7594
vn 0.3086 0.9032 -0.2982
vn 0.0229 -0.4212 0.9067
vn -0.4356 -0.8869 0.1538
vn -0.1917 -0.1256 -0.9734
vn -0.0983 0.8127 -0.5743
vn -0.2524 0.3125 0.9158
vn 0.3455 -0.7239 0.5972
vn 0.8294 0.0454 -0.5568
vn 0.6574 0.7029 -0.2718
vn 0.6705 0.5570 -0.4901
vn 0.5732 0.2749 0.7719
vn 0.6488 0.4651 -0.6023
vn 0.6705 0.6996 -0.2471
vn 0.9085 0.4067 0.0955
vn 0.9712 0.2375 -0.0191
vn 0.7246 0.2230 -0.6521
vn -0.2864 -0.1669 -0.9435
vn -0.3514 0.7223 -0.5957
vn -0.2308 0.4118 0.8816
vn -0.2085 -0.6164 0.7594
vn -0.3086 -0.9032 0.2982
vn -0.0229 0.4212 -0.9067
vn 0.4356 0.8869 -0.1538
vn 0.1917 0.1256 0.9734
vn 0.0983 -0.8127 0.5743
vn 0.2524 -0.3125 -0.9158
vn -0.3455 0.7239 -0.5972
vn -0.8294 -0.0454 0.5568
vn -0.6574 -0.7029 0.2718
vn -0.6705 -0.5570 0.4901
vn -0.5732 -0.2749 -0.7719
vn 0.0000 0.0000 1.0000
usemtl Standard_1
s off
f 1/1/1 3/2/1 2/3/1
f 13/4/2 4/5/2 3/2/2
f 14/6/3 5/7/3 15/8/3
f 16/9/4 6/10/4 5/7/4
f 17/11/5 2/3/5 6/10/5
f 2/3/6 7/12/6 11/13/6
f 3/2/7 8/14/7 7/12/7
f 18/15/8 9/16/8 19/17/8
f 5/7/9 10/18/9 9/16/9
f 6/10/10 11/13/10 10/18/10
f 7/12/11 2/3/11 3/2/11
f 8/14/12 3/2/12 4/5/12
f 9/16/13 20/19/13 5/7/13
f 10/18/14 5/7/14 6/10/14
f 11/13/15 6/10/15 2/3/15
f 12/20/16 7/12/16 8/14/16
f 21/21/17 22/22/17 9/16/17
f 23/23/18 9/16/18 10/18/18
f 24/24/19 10/18/19 11/13/19
f 25/25/20 11/13/20 7/12/20
f 27/26/21 28/27/21 29/28/21
f 39/29/22 29/28/22 30/30/22
f 40/31/23 41/32/23 31/33/23
f 42/34/24 31/33/24 32/35/24
f 43/36/25 32/35/25 28/27/25
f 28/27/26 37/37/26 33/38/26
f 29/28/27 33/38/27 34/39/27
f 44/40/28 45/41/28 35/42/28
f 31/33/29 35/42/29 36/43/29
f 32/35/30 36/43/30 37/37/30
f 33/38/31 29/28/31 28/27/31
f 34/39/32 30/30/32 29/28/32
f 35/42/33 31/33/33 46/44/33
f 36/43/34 32/35/34 31/33/34
f 37/37/35 28/27/35 32/35/35
f 38/45/36 34/39/36 33/38/36
f 47/46/37 35/42/37 48/47/37
f 49/48/38 36/43/38 35/42/38
f 50/49/39 37/37/39 36/43/39
f 51/50/40 33/38/40 37/37/40
f 19/17/41 9/16/41 35/42/41 45/41/41
f 16/9/41 5/7/41 31/33/41 42/34/41
f 13/4/41 3/2/41 29/28/41 39/29/41
f 23/23/41 10/18/41 36/43/41 49/48/41
f 12/20/41 8/14/41 34/39/41 38/45/41
f 18/15/41 19/17/41 45/41/41 44/40/41
f 25/25/41 7/12/41 33/38/41 51/50/41
f 7/12/41 12/20/41 38/45/41 33/38/41
f 4/5/41 13/4/41 39/29/41 30/30/41
f 9/16/41 18/15/41 44/40/41 35/42/41
f 1/1/41 2/3/41 28/27/41 27/26/41
f 17/11/41 6/10/41 32/35/41 43/36/41
f 21/21/41 9/16/41 35/42/41 47/46/41
f 3/2/41 1/1/41 27/26/41 29/28/41
f 5/7/41 20/19/41 46/44/41 31/33/41
f 20/19/41 9/16/41 35/42/41 46/44/41
f 9/16/41 22/22/41 48/47/41 35/42/41
f 2/3/41 17/11/41 43/36/41 28/27/41
f 5/7/41 14/6/41 40/31/41 31/33/41
f 6/10/41 16/9/41 42/34/41 32/35/41
f 24/24/41 11/13/41 37/37/41 50/49/41
f 15/8/41 5/7/41 31/33/41 41/32/41
f 10/18/41 24/24/41 50/49/41 36/43/41
f 14/6/41 15/8/41 41/32/41 40/31/41
f 11/13/41 25/25/41 51/50/41 37/37/41
f 9/16/41 23/23/41 49/48/41 35/42/41
f 22/22/41 21/21/41 47/46/41 48/47/41
f 8/14/41 4/5/41 30/30/41 34/39/41
