# Blender v2.79 (sub 0) OBJ File: 'astroids.blend'
# www.blender.org
mtllib astrd_3.mtl
o GeoSpher31
v -1.482425 1.012428 -2.266000
v -1.290094 1.332400 -0.560407
v -0.193667 -0.293245 0.936038
v 0.236446 -1.431454 0.305336
v -0.457503 -0.679530 -1.668497
v -2.538639 -0.405948 -2.526461
v -3.175590 1.721949 -1.423424
v -1.987074 0.580187 1.687317
v -0.786623 -2.248349 2.481353
v -0.855637 -2.779703 0.086446
v -2.749119 1.224495 -2.752775
v -2.195064 1.745589 -0.034962
v -0.866654 -0.669191 2.331800
v 0.030310 -2.774906 1.356577
v -1.127999 -1.520518 -1.768701
v -3.477161 0.660316 -0.674998
v -2.883455 0.072302 1.207538
v -2.184622 -1.684337 1.733334
v -2.182131 -2.149378 0.237369
v -3.242688 -0.593860 -1.300646
v -1.463629 -2.119100 2.321135
v -1.494273 0.026188 2.160077
v -1.839881 -1.021937 -2.319661
v -0.243567 -2.736925 2.057570
v -2.462575 0.344673 1.596830
v -3.153405 1.641372 -2.221807
v -2.959699 -0.568022 -1.964799
v 0.274761 -2.201990 0.928375
v -0.379593 -0.537352 1.802882
v -2.138968 1.241742 -2.670300
v -1.415337 1.331918 -1.519279
v -3.578368 0.125150 -1.110348
v -1.478391 -2.716980 0.226443
v -2.807462 -1.367064 -0.592329
v -0.952297 -2.229053 -0.860266
v -2.692309 0.454107 -2.855607
v -0.314451 -2.919498 0.784638
v -0.708766 -1.136469 -1.826778
v -0.817946 -1.484868 2.559766
v -0.647041 0.590188 0.202385
v -1.808123 1.691988 -0.285253
v -2.194676 -2.016531 1.029750
v -2.743598 1.922486 -0.783190
v -0.905331 0.173644 -2.154342
v -2.720145 -0.735483 1.530682
v -2.000363 1.221734 0.915649
v 0.110808 -0.904698 0.620000
v -3.217267 0.442531 0.275862
v -3.353410 1.218127 -1.063391
v -0.008780 -1.051004 -0.705339
v -1.614792 -0.009687 -2.871890
v -2.472169 2.041488 -1.761322
v 0.103683 -1.842381 1.928213
v -0.062995 -2.118746 -0.330194
v -3.479835 0.732416 -2.165780
v -1.941798 -0.805239 2.469987
v -0.968550 -3.025225 1.598581
v -2.061928 -1.852802 -1.245294
v -0.380199 0.147679 -0.893141
v -2.790764 1.251436 0.296525
v -1.143982 0.776753 1.220722
v -3.232302 -0.624144 0.185334
vt 0.258256 0.116850
vt 0.114272 0.122310
vt 0.202280 0.081540
vt 0.078357 0.041069
vt 0.228327 0.020534
vt 0.302260 0.182310
vt 0.122435 0.206870
vt 0.378297 0.171690
vt 0.263644 0.275049
vt 0.223833 0.370957
vt 0.348887 0.328278
vt 0.260656 0.454660
vt 0.153692 0.381952
vt 0.075093 0.298071
vt 0.097734 0.387361
vt 0.071507 0.479266
vt 0.000000 0.392592
vt 0.598081 0.152306
vt 0.670534 0.121759
vt 0.646455 0.228460
vt 0.555614 0.173379
vt 0.585933 0.060880
vt 0.448212 0.879431
vt 0.556675 0.878149
vt 0.480227 0.953706
vt 0.381239 0.865441
vt 0.482679 0.814349
vt 0.893427 0.415408
vt 0.969440 0.446670
vt 0.877759 0.492412
vt 0.839328 0.377322
vt 0.948277 0.366041
vt 0.899993 0.136865
vt 0.971902 0.172879
vt 0.949919 0.211737
vt 0.847536 0.142034
vt 0.887608 0.074597
vt 0.153522 0.839011
vt 0.043021 0.847720
vt 0.118593 0.764753
vt 0.219930 0.823324
vt 0.219930 0.993517
vt 0.120318 0.931951
vt 0.496182 0.399623
vt 0.634415 0.328351
vt 0.550007 0.446374
vt 0.433086 0.431854
vt 0.499381 0.305954
vt 0.516166 0.739672
vt 0.408193 0.745752
vt 0.483170 0.655803
vt 0.582157 0.744067
vt 0.974921 0.299488
vt 0.896593 0.266416
vt 1.000000 0.318531
vt 0.080212 0.696485
vt 0.192439 0.684780
vt 0.010353 0.718162
vt 0.109965 0.609535
vt 0.579205 0.537406
vt 0.593595 0.469990
vt 0.646455 0.414624
vt 0.670534 0.494089
vt 0.500668 0.206048
vt 0.407373 0.284829
vt 0.439814 0.141493
vt 0.713026 0.372582
vt 0.792268 0.253750
vt 0.783605 0.335522
vt 0.790171 0.169870
vt 0.694243 0.248277
vt 0.722875 0.124105
vt 0.686262 0.855002
vt 0.842872 0.851057
vt 0.789231 0.899668
vt 0.832852 0.989001
vt 0.670534 0.989001
vt 0.831701 0.704941
vt 0.885098 0.794556
vt 0.928575 0.690992
vt 0.976653 0.831332
vt 0.781580 0.630541
vt 0.695886 0.726497
vt 0.693303 0.608979
vt 0.821375 0.585309
vt 0.340804 0.048056
vt 0.154548 0.516451
vt 0.507103 0.050593
vt 0.378297 1.000000
vt 0.775456 0.464726
vt 0.790229 0.049675
vt 0.497010 0.532676
vt 0.582157 0.580723
vt 0.000000 0.565940
vt 0.949961 0.949584
vt 0.684616 0.496956
vn 0.6763 0.7011 -0.2259
vn 0.7868 0.2597 -0.5599
vn 0.6532 0.5593 -0.5103
vn 0.3205 -0.0967 -0.9423
vn 0.3157 0.5499 -0.7733
vn 0.6702 0.7421 0.0131
vn 0.8818 0.4326 -0.1877
vn 0.4339 0.8874 0.1557
vn 0.7762 0.6221 0.1023
vn 0.8602 0.4675 0.2038
vn 0.4962 0.7353 0.4617
vn 0.7317 0.4519 0.5103
vn 0.9487 0.3068 0.0756
vn 0.9446 0.0309 -0.3266
vn 0.9918 0.0650 -0.1097
vn 0.9697 -0.2393 -0.0493
vn 0.7371 -0.5073 -0.4464
vn 0.8396 -0.0077 -0.5431
vn 0.6014 -0.3846 -0.7002
vn -0.4322 -0.5017 -0.7494
vn -0.0843 -0.6321 -0.7702
vn -0.6912 -0.5363 -0.4843
vn -0.3635 -0.1143 -0.9245
vn -0.7537 0.6552 0.0500
vn 0.0999 0.9617 -0.2551
vn -0.6023 0.6477 -0.4665
vn -0.9085 0.3858 0.1605
vn -0.3671 0.8945 0.2550
vn -0.1696 0.6612 0.7307
vn -0.0566 0.8336 0.5495
vn -0.5941 0.4349 0.6766
vn 0.1050 0.5532 0.8263
vn 0.0795 -0.3735 0.9242
vn 0.8522 0.0533 0.5204
vn 0.2582 0.0660 0.9638
vn -0.4931 -0.4775 0.7272
vn -0.2358 -0.9355 0.2629
vn 0.4650 -0.6443 0.6072
vn 0.0757 -0.9228 -0.3776
vn 0.3874 -0.8971 -0.2124
vn -0.4021 -0.8967 -0.1847
vn 0.1673 -0.8060 -0.5677
vn -0.2451 0.4216 -0.8730
vn -0.9095 -0.0028 -0.4155
vn -0.0016 0.9253 0.3792
vn -0.6333 0.6184 0.4653
vn 0.4162 0.3845 0.8240
vn -0.4287 0.0670 0.9009
vn 0.7071 -0.7001 0.0992
vn 0.2280 -0.6808 -0.6960
vn -0.4064 -0.7908 -0.4576
vn -0.9882 -0.1480 -0.0393
vn -0.9061 0.2198 0.3615
vn -0.9554 0.2118 0.2055
vn -0.8445 0.2040 0.4951
vn -0.9337 -0.2989 0.1969
vn -0.8554 -0.1679 0.4899
vn -0.7569 -0.6237 0.1953
vn -0.7712 -0.4743 0.4246
vn -0.7741 -0.6235 -0.1097
vn -0.7053 -0.7087 -0.0175
vn -0.8398 -0.4916 -0.2302
usemtl Standard_1
s 1
f 31/1/1 44/2/2 1/3/3
f 1/3/3 51/4/4 30/5/5
f 30/5/5 31/1/1 1/3/3
f 2/6/6 59/7/7 31/1/1
f 31/1/1 41/8/8 2/6/6
f 41/8/8 40/9/9 2/6/6
f 3/10/10 59/7/7 40/9/9
f 3/10/10 61/11/11 29/12/12
f 29/12/12 47/13/13 3/10/10
f 50/14/14 47/13/13 4/15/15
f 47/13/13 28/16/16 4/15/15
f 4/15/15 54/17/17 50/14/14
f 5/18/18 59/19/7 50/20/14
f 50/20/14 38/21/19 5/18/18
f 38/21/19 44/22/2 5/18/18
f 6/23/20 51/24/4 23/25/21
f 23/25/21 27/26/22 6/23/20
f 27/26/22 36/27/23 6/23/20
f 7/28/24 52/29/25 26/30/26
f 26/30/26 49/31/27 7/28/24
f 49/31/27 43/32/28 7/28/24
f 8/33/29 61/34/11 46/35/30
f 46/35/30 25/36/31 8/33/29
f 25/36/31 22/37/32 8/33/29
f 9/38/33 53/39/34 39/40/35
f 39/40/35 21/41/36 9/38/33
f 9/38/33 57/42/37 24/43/38
f 10/44/39 54/45/17 37/46/40
f 37/46/40 33/47/41 10/44/39
f 33/47/41 35/48/42 10/44/39
f 11/49/43 55/50/44 26/51/26
f 26/51/26 30/52/5 11/49/43
f 30/52/5 36/27/23 11/49/43
f 12/53/45 60/54/46 46/35/30
f 46/35/30 41/55/8 12/53/45
f 41/55/8 43/32/28 12/53/45
f 13/56/47 56/57/48 39/40/35
f 39/40/35 29/58/12 13/56/47
f 29/58/12 22/59/32 13/56/47
f 24/60/38 37/46/40 14/61/49
f 37/46/40 28/62/16 14/61/49
f 14/61/49 53/63/34 24/60/38
f 15/64/50 58/65/51 23/66/21
f 23/66/21 38/21/19 15/64/50
f 38/21/19 35/48/42 15/64/50
f 32/67/52 48/68/53 16/69/54
f 48/68/53 49/31/27 16/69/54
f 49/31/27 32/67/52 16/69/54
f 17/70/55 62/71/56 45/72/57
f 45/72/57 25/36/31 17/70/55
f 25/36/31 48/68/53 17/70/55
f 45/73/57 42/74/58 18/75/59
f 42/74/58 21/76/36 18/75/59
f 18/75/59 56/77/48 45/73/57
f 42/74/58 34/78/60 19/79/61
f 19/79/61 58/80/51 33/81/41
f 33/81/41 42/74/58 19/79/61
f 20/82/62 62/83/56 32/84/52
f 32/84/52 27/85/22 20/82/62
f 27/85/22 34/78/60 20/82/62
f 31/1/1 59/7/7 44/2/2
f 1/3/3 44/2/2 51/4/4
f 30/5/5 52/86/25 31/1/1
f 2/6/6 40/9/9 59/7/7
f 31/1/1 52/86/25 41/8/8
f 41/8/8 61/11/11 40/9/9
f 3/10/10 47/13/13 59/7/7
f 3/10/10 40/9/9 61/11/11
f 29/12/12 53/87/34 47/13/13
f 50/14/14 59/7/7 47/13/13
f 47/13/13 53/87/34 28/16/16
f 4/15/15 28/16/16 54/17/17
f 5/18/18 44/22/2 59/19/7
f 50/20/14 54/45/17 38/21/19
f 38/21/19 51/88/4 44/22/2
f 6/23/20 36/27/23 51/24/4
f 23/25/21 58/89/51 27/26/22
f 27/26/22 55/50/44 36/27/23
f 7/28/24 43/32/28 52/29/25
f 26/30/26 55/90/44 49/31/27
f 49/31/27 60/54/46 43/32/28
f 8/33/29 22/37/32 61/34/11
f 46/35/30 60/54/46 25/36/31
f 25/36/31 56/91/48 22/37/32
f 9/38/33 24/43/38 53/39/34
f 39/40/35 56/57/48 21/41/36
f 9/38/33 21/41/36 57/42/37
f 10/44/39 35/48/42 54/45/17
f 37/46/40 57/92/37 33/47/41
f 33/47/41 58/65/51 35/48/42
f 11/49/43 36/27/23 55/50/44
f 26/51/26 52/93/25 30/52/5
f 30/52/5 51/24/4 36/27/23
f 12/53/45 43/32/28 60/54/46
f 46/35/30 61/34/11 41/55/8
f 41/55/8 52/29/25 43/32/28
f 13/56/47 22/59/32 56/57/48
f 39/40/35 53/39/34 29/58/12
f 29/58/12 61/94/11 22/59/32
f 24/60/38 57/92/37 37/46/40
f 37/46/40 54/45/17 28/62/16
f 14/61/49 28/62/16 53/63/34
f 15/64/50 35/48/42 58/65/51
f 23/66/21 51/88/4 38/21/19
f 38/21/19 54/45/17 35/48/42
f 32/67/52 62/71/56 48/68/53
f 48/68/53 60/54/46 49/31/27
f 49/31/27 55/90/44 32/67/52
f 17/70/55 48/68/53 62/71/56
f 45/72/57 56/91/48 25/36/31
f 25/36/31 60/54/46 48/68/53
f 45/73/57 62/83/56 42/74/58
f 42/74/58 57/95/37 21/76/36
f 18/75/59 21/76/36 56/77/48
f 42/74/58 62/83/56 34/78/60
f 19/79/61 34/78/60 58/80/51
f 33/81/41 57/95/37 42/74/58
f 20/82/62 34/78/60 62/83/56
f 32/84/52 55/96/44 27/85/22
f 27/85/22 58/80/51 34/78/60
