# Blender v2.79 (sub 0) OBJ File: ''
# www.blender.org
mtllib astrd_4.mtl
o GeoSpher35
v 2.617769 -0.875661 0.188832
v 0.129871 0.675628 -3.942437
v -1.571176 2.713192 -2.745063
v 0.350276 2.134588 0.600409
v 1.715125 -1.109113 1.057350
v 1.041465 -2.454547 -1.302123
v -1.726336 1.127738 -2.511008
v -2.316308 2.088611 0.081776
v -0.110222 0.204359 2.389625
v 0.105706 -3.117429 0.857174
v -0.807558 -2.204256 -1.927119
v -1.263572 -1.252296 0.906498
v 2.617769 -0.875661 0.188832
v 2.617769 -0.875661 0.188832
v 0.350276 2.134588 0.600409
v 2.617769 -0.875661 0.188832
v 2.617769 -0.875661 0.188832
v 0.350276 2.134588 0.600409
v -2.316308 2.088611 0.081776
v 0.350276 2.134588 0.600409
v -1.263572 -1.252296 0.906498
v -2.316308 2.088611 0.081776
v -1.263572 -1.252296 0.906498
v -1.263572 -1.252296 0.906498
v -1.263572 -1.252296 0.906498
vt 218.787766 182.323135
vt 182.323135 118.069473
vt 255.252380 118.069473
vt 291.717010 182.323135
vt 328.181641 118.069473
vt 0.000003 182.323135
vt -36.464634 118.069473
vt 36.464642 118.069473
vt 72.929260 182.323135
vt 109.393883 118.069473
vt 145.858505 182.323135
vt 145.858536 64.253662
vt 218.787750 64.253662
vt 291.717010 64.253654
vt -36.464634 118.069473
vt -72.929253 64.253654
vt 0.000014 64.253662
vt 72.929253 64.253654
vt -36.464634 118.069473
vt 255.252380 0.000000
vt -36.464615 0.000000
vt -72.929253 64.253654
vt 36.464634 0.000000
vt 109.393898 0.000000
vt 182.323135 0.000000
vn 0.7063 0.6879 -0.1671
vn 0.7355 0.5977 -0.3191
vn 0.5995 0.3534 0.7181
vn 0.5082 -0.8025 0.3125
vn 0.7854 -0.2492 -0.5666
vn -0.6273 -0.2990 -0.7191
vn -0.9684 0.0590 -0.2422
vn -0.1494 0.6911 0.7071
vn 0.3576 -0.3719 0.8566
vn -0.0262 -0.9524 -0.3037
vn -0.6181 -0.0553 -0.7841
vn -0.0560 0.9779 0.2013
vn 0.7082 0.3817 0.5940
vn 0.7659 -0.6277 0.1392
vn 0.1811 -0.6028 -0.7771
vn -0.9424 -0.3206 -0.0956
vn -0.7505 -0.0744 0.6567
vn -0.5020 -0.3890 0.7724
vn -0.8033 -0.5916 0.0695
vn -0.9593 -0.2754 -0.0619
usemtl Standard_1
s off
f 1/1/1 2/2/1 3/3/1
f 13/4/2 3/3/2 4/5/2
f 14/6/3 15/7/3 5/8/3
f 16/9/4 5/8/4 6/10/4
f 17/11/5 6/10/5 2/2/5
f 2/2/6 11/12/6 7/13/6
f 3/3/7 7/13/7 8/14/7
f 18/15/8 19/16/8 9/17/8
f 5/8/9 9/17/9 10/18/9
f 6/10/10 10/18/10 11/12/10
f 7/13/11 3/3/11 2/2/11
f 8/14/12 4/5/12 3/3/12
f 9/17/13 5/8/13 20/19/13
f 10/18/14 6/10/14 5/8/14
f 11/12/15 2/2/15 6/10/15
f 12/20/16 8/14/16 7/13/16
f 21/21/17 9/17/17 22/22/17
f 23/23/18 10/18/18 9/17/18
f 24/24/19 11/12/19 10/18/19
f 25/25/20 7/13/20 11/12/20
