# Blender v2.79 (sub 0) OBJ File: 'astroids.blend'
# www.blender.org
mtllib astrd_4.mtl
o GeoSpher35
v 0.392155 0.837720 -4.612579
v 0.465623 1.324040 -3.098297
v 1.561056 0.049938 -1.830826
v 1.791453 -1.479774 -2.465003
v 1.263035 -0.884860 -4.131599
v -0.801341 -0.133630 -5.239878
v -1.871274 1.976514 -4.171122
v -0.692085 1.475853 -1.422420
v 0.570203 -1.340728 -1.011640
v 0.113204 -2.592077 -3.237046
v -1.055881 1.505520 -5.512526
v -1.179070 2.312131 -3.133982
v 0.651726 0.409945 -1.097229
v 0.954098 -2.227030 -2.242223
v 0.121259 -1.327725 -4.836916
v -1.768739 0.654684 -2.953935
v -1.230034 0.346891 -1.320390
v -0.422696 -1.388456 -1.061924
v -0.655141 -2.191327 -2.500839
v -1.265822 -0.776271 -3.623566
v 0.035748 -1.410563 -0.929870
v 0.049924 1.056186 -1.105582
v -0.339442 -0.747495 -5.209765
v 0.836283 -1.948575 -1.558013
v -1.556167 1.830741 -4.958108
v -1.150264 -0.496605 -4.548571
v 1.375535 -1.817616 -2.461178
v 1.069546 0.371340 -1.540752
v -0.526258 1.433015 -5.426330
v -0.310947 -2.526273 -2.925136
v -1.087162 1.028929 -1.291031
v -1.644663 0.459473 -2.044691
v 0.117093 -2.144651 -4.048979
v -0.863422 0.793814 -5.524640
v 0.553618 -2.597771 -2.704233
v 0.638908 -0.997876 -4.776447
v -0.756631 -0.522375 -0.994726
v 0.706708 -0.458884 -0.888652
v 1.921351 -0.853653 -1.985590
v 1.248681 0.658226 -2.258149
v -0.483587 2.120988 -3.317412
v -0.558926 -1.987377 -1.672951
v -1.734457 2.272612 -3.715276
v -1.506117 -0.061536 -3.268681
v 1.100707 -0.061793 -4.347624
v -0.959297 2.002796 -2.191733
v 0.476093 0.999823 -3.789955
v -1.920664 1.461887 -3.611751
v 1.678430 -1.423711 -3.150651
v -0.998023 -1.606038 -3.009435
v 0.056858 0.337517 -5.627747
v -1.110433 2.152189 -4.648560
v 1.410416 -1.013321 -1.559195
v 0.945037 -2.078420 -3.565518
v -1.539474 0.886551 -4.628785
v -0.167400 0.052530 -0.619726
v 0.108820 -2.532676 -1.799959
v -0.652563 -1.804231 -4.130562
v 1.856217 -0.453124 -2.742593
v 0.255863 1.624485 -1.981249
v -1.166029 -0.961596 -1.915995
v -1.832274 1.720913 -2.482476
vt 0.167383 0.786864
vt 0.305582 0.779658
vt 0.209467 0.849651
vt 0.283353 0.989635
vt 0.150295 0.989635
vt 0.163905 0.612917
vt 0.115016 0.738489
vt 0.008619 0.822893
vt 0.000000 0.656152
vt 0.761912 0.281350
vt 0.768291 0.168308
vt 0.796699 0.318524
vt 0.737351 0.342514
vt 0.674084 0.217781
vt 0.734276 0.186632
vt 0.686157 0.116295
vt 0.627023 0.106590
vt 0.683066 0.070942
vt 0.554058 0.840549
vt 0.418727 0.919129
vt 0.451294 0.801259
vt 0.469474 0.689329
vt 0.604350 0.790371
vt 0.589157 0.919129
vt 0.109841 0.261093
vt 0.037014 0.308288
vt 0.097734 0.184592
vt 0.172195 0.242859
vt 0.159682 0.391291
vt 0.080532 0.352607
vt 0.191516 0.517819
vt 0.117964 0.536657
vt 0.126112 0.482838
vt 0.240741 0.475702
vt 0.220246 0.569681
vt 0.919862 0.758402
vt 0.970531 0.868223
vt 0.880182 0.827395
vt 0.889139 0.692936
vt 1.000000 0.750408
vt 0.572464 0.255549
vt 0.642396 0.326636
vt 0.520147 0.276144
vt 0.560924 0.166951
vt 0.557829 0.632910
vt 0.458882 0.589277
vt 0.511331 0.577097
vt 0.525066 0.523951
vt 0.611359 0.591339
vt 0.078233 0.429755
vt 0.050322 0.437584
vt 0.841279 0.887795
vt 0.774189 0.767689
vt 0.882125 0.944497
vt 0.761919 0.887196
vt 0.698455 0.386540
vt 0.607352 0.443550
vt 0.701513 0.476310
vt 0.560166 0.103064
vt 0.438244 0.115206
vt 0.494080 0.051095
vt 0.579003 0.030509
vt 0.619893 0.718418
vt 0.687909 0.735933
vt 0.274935 0.316931
vt 0.379288 0.394772
vt 0.297543 0.401213
vt 0.319808 0.525954
vt 0.815663 0.634778
vt 0.935869 0.553494
vt 0.877108 0.627126
vt 0.983967 0.631886
vt 0.483070 0.289385
vt 0.424157 0.308510
vt 0.421442 0.205350
vt 0.515242 0.382982
vt 0.415445 0.109931
vt 0.301432 0.152658
vt 0.342119 0.094520
vt 0.303815 0.031848
vt 0.412163 0.000000
vt 0.249416 0.232552
vt 0.408046 0.236107
vt 0.198121 0.085958
vt 0.281277 0.632984
vt 0.048348 0.947950
vt 0.772902 0.446291
vt 0.699060 0.873330
vt 0.433902 0.495165
vt 0.764250 1.000000
vt 0.871738 0.495165
vn 0.7291 0.6376 -0.2488
vn 0.8419 0.2732 -0.4653
vn 0.7397 0.5898 -0.3239
vn 0.3841 0.0445 -0.9222
vn 0.4379 0.5612 -0.7023
vn 0.7843 0.6171 0.0632
vn 0.7022 0.6838 -0.1981
vn 0.4567 0.8862 -0.0779
vn 0.5061 0.8083 0.3007
vn 0.7956 0.3760 0.4750
vn 0.9525 0.2454 -0.1802
vn 0.6884 0.4353 0.5801
vn 0.6866 -0.2266 0.6908
vn 0.9122 -0.0911 0.3994
vn 0.8354 -0.5349 0.1266
vn 0.7030 -0.6956 0.1479
vn 0.8664 -0.3898 -0.3121
vn 0.8131 -0.1769 -0.5545
vn 0.5755 -0.7064 -0.4121
vn 0.5728 -0.3521 -0.7402
vn -0.5722 -0.3343 -0.7489
vn -0.2126 -0.4810 -0.8505
vn -0.8334 -0.3659 -0.4141
vn -0.8926 -0.2361 -0.3840
vn -0.4355 -0.1142 -0.8929
vn -0.8788 0.3913 -0.2729
vn 0.1332 0.9262 -0.3527
vn -0.6924 0.4161 -0.5894
vn -0.9962 -0.0629 -0.0606
vn -0.5595 0.8287 -0.0125
vn -0.1414 0.6898 0.7100
vn -0.1019 0.8819 0.4603
vn -0.5434 0.3413 0.7669
vn 0.2591 0.5839 0.7693
vn 0.3624 -0.3631 0.8584
vn 0.5039 0.0105 0.8637
vn -0.0463 -0.4258 0.9036
vn 0.5320 -0.5953 0.6021
vn 0.0635 -0.7985 -0.5986
vn 0.3643 -0.9307 -0.0336
vn 0.0371 -0.9489 -0.3132
vn -0.4810 -0.8730 -0.0801
vn -0.6048 -0.6438 -0.4686
vn -0.3099 0.3266 -0.8929
vn -0.0278 0.9910 0.1311
vn -0.8231 0.4230 0.3788
vn 0.5719 0.3810 0.7264
vn -0.0712 0.1107 0.9913
vn 0.6451 -0.7348 0.2095
vn -0.0589 -0.8808 0.4698
vn 0.1362 -0.5908 -0.7952
vn -0.9512 -0.3001 -0.0708
vn -0.9377 -0.1450 0.3157
vn -0.9706 -0.2406 0.0000
vn -0.6303 -0.2114 0.7470
vn -0.7656 -0.0480 0.6415
vn -0.4886 -0.4217 0.7638
vn -0.8943 -0.3467 0.2828
vn -0.6561 -0.5897 0.4710
vn -0.8895 -0.4553 -0.0380
vn -0.7739 -0.6240 0.1083
vn -0.9339 -0.3326 -0.1308
usemtl Standard_1
s 1
f 47/1/1 45/2/2 1/3/3
f 1/3/3 51/4/4 29/5/5
f 29/5/5 47/1/1 1/3/3
f 40/6/6 47/1/1 2/7/7
f 47/1/1 41/8/8 2/7/7
f 2/7/7 60/9/9 40/6/6
f 3/10/10 59/11/11 40/12/6
f 40/12/6 28/13/12 3/10/10
f 3/10/10 53/14/13 39/15/14
f 4/16/15 59/11/11 39/15/14
f 4/16/15 53/14/13 27/17/16
f 27/17/16 49/18/17 4/16/15
f 5/19/18 59/20/11 49/21/17
f 5/19/18 54/22/19 36/23/20
f 36/23/20 45/24/2 5/19/18
f 6/25/21 51/26/4 23/27/22
f 23/27/22 26/28/23 6/25/21
f 6/25/21 55/29/24 34/30/25
f 7/31/26 52/32/27 25/33/28
f 7/31/26 55/29/24 48/34/29
f 48/34/29 43/35/30 7/31/26
f 8/36/31 60/37/9 46/38/32
f 46/38/32 31/39/33 8/36/31
f 31/39/33 22/40/34 8/36/31
f 9/41/35 53/14/13 38/42/36
f 38/42/36 21/43/37 9/41/35
f 21/43/37 24/44/38 9/41/35
f 33/45/39 35/46/40 10/47/41
f 35/46/40 30/48/42 10/47/41
f 10/47/41 58/49/43 33/45/39
f 11/50/44 55/29/24 25/33/28
f 11/50/44 52/32/27 29/51/5
f 29/51/5 34/30/25 11/50/44
f 12/52/45 62/53/46 46/38/32
f 46/38/32 41/54/8 12/52/45
f 41/54/8 43/55/30 12/52/45
f 13/56/47 56/57/48 38/42/36
f 38/42/36 28/13/12 13/56/47
f 28/13/12 22/58/34 13/56/47
f 14/59/49 57/60/50 35/61/40
f 14/59/49 54/62/19 27/17/16
f 27/17/16 24/44/38 14/59/49
f 15/63/51 58/49/43 23/64/22
f 23/64/22 36/23/20 15/63/51
f 15/63/51 54/22/19 33/45/39
f 44/65/52 32/66/53 16/67/54
f 16/67/54 62/68/46 48/34/29
f 16/67/54 55/29/24 44/65/52
f 32/69/53 37/70/55 17/71/56
f 17/71/56 56/72/48 31/39/33
f 31/39/33 32/69/53 17/71/56
f 18/73/57 61/74/58 42/75/59
f 42/75/59 21/43/37 18/73/57
f 21/43/37 37/76/55 18/73/57
f 42/77/59 50/78/60 19/79/61
f 50/78/60 30/80/42 19/79/61
f 19/79/61 57/81/50 42/77/59
f 20/82/62 61/83/58 44/65/52
f 44/65/52 26/28/23 20/82/62
f 20/82/62 58/84/43 50/78/60
f 47/1/1 59/85/11 45/2/2
f 1/3/3 45/2/2 51/4/4
f 29/5/5 52/86/27 47/1/1
f 40/6/6 59/85/11 47/1/1
f 47/1/1 52/86/27 41/8/8
f 2/7/7 41/8/8 60/9/9
f 3/10/10 39/15/14 59/11/11
f 40/12/6 60/87/9 28/13/12
f 3/10/10 28/13/12 53/14/13
f 4/16/15 49/18/17 59/11/11
f 4/16/15 39/15/14 53/14/13
f 27/17/16 54/62/19 49/18/17
f 5/19/18 45/24/2 59/20/11
f 5/19/18 49/21/17 54/22/19
f 36/23/20 51/88/4 45/24/2
f 6/25/21 34/30/25 51/26/4
f 23/27/22 58/84/43 26/28/23
f 6/25/21 26/28/23 55/29/24
f 7/31/26 43/35/30 52/32/27
f 7/31/26 25/33/28 55/29/24
f 48/34/29 62/68/46 43/35/30
f 8/36/31 22/40/34 60/37/9
f 46/38/32 62/53/46 31/39/33
f 31/39/33 56/72/48 22/40/34
f 9/41/35 24/44/38 53/14/13
f 38/42/36 56/57/48 21/43/37
f 21/43/37 57/60/50 24/44/38
f 33/45/39 54/22/19 35/46/40
f 35/46/40 57/89/50 30/48/42
f 10/47/41 30/48/42 58/49/43
f 11/50/44 34/30/25 55/29/24
f 11/50/44 25/33/28 52/32/27
f 29/51/5 51/26/4 34/30/25
f 12/52/45 43/55/30 62/53/46
f 46/38/32 60/37/9 41/54/8
f 41/54/8 52/90/27 43/55/30
f 13/56/47 22/58/34 56/57/48
f 38/42/36 53/14/13 28/13/12
f 28/13/12 60/87/9 22/58/34
f 14/59/49 24/44/38 57/60/50
f 14/59/49 35/61/40 54/62/19
f 27/17/16 53/14/13 24/44/38
f 15/63/51 33/45/39 58/49/43
f 23/64/22 51/88/4 36/23/20
f 15/63/51 36/23/20 54/22/19
f 44/65/52 61/83/58 32/66/53
f 16/67/54 32/66/53 62/68/46
f 16/67/54 48/34/29 55/29/24
f 32/69/53 61/91/58 37/70/55
f 17/71/56 37/70/55 56/72/48
f 31/39/33 62/53/46 32/69/53
f 18/73/57 37/76/55 61/74/58
f 42/75/59 57/60/50 21/43/37
f 21/43/37 56/57/48 37/76/55
f 42/77/59 61/83/58 50/78/60
f 50/78/60 58/84/43 30/80/42
f 19/79/61 30/80/42 57/81/50
f 20/82/62 50/78/60 61/83/58
f 44/65/52 55/29/24 26/28/23
f 20/82/62 26/28/23 58/84/43
