# Blender v2.79 (sub 0) OBJ File: ''
# www.blender.org
mtllib astrd_2.mtl
o GeoSpher36
v 2.303222 -0.472843 -0.430179
v -0.273069 -0.928165 -3.583058
v -0.912744 2.468532 -1.557613
v 0.584242 1.798501 1.136789
v 1.880338 -1.458929 1.441693
v 1.663251 -2.707390 -1.292450
v -1.995840 0.340574 -2.406695
v -1.927571 2.349212 1.019573
v 0.022857 -0.084074 2.100387
v 0.555143 -2.845468 0.945259
v -0.734017 -2.923498 -1.906591
v -1.655258 -0.747800 0.160815
v 2.303222 -0.472843 -0.430179
v 2.303222 -0.472843 -0.430179
v 0.584242 1.798501 1.136789
v 2.303222 -0.472843 -0.430179
v 2.303222 -0.472843 -0.430179
v 0.584242 1.798501 1.136789
v -1.927571 2.349212 1.019573
v 0.584242 1.798501 1.136789
v -1.655258 -0.747800 0.160815
v -1.927571 2.349212 1.019573
v -1.655258 -0.747800 0.160815
v -1.655258 -0.747800 0.160815
v -1.655258 -0.747800 0.160815
vt 218.787766 182.323135
vt 182.323135 118.069473
vt 255.252380 118.069473
vt 291.717010 182.323135
vt 328.181641 118.069473
vt 0.000003 182.323135
vt -36.464634 118.069473
vt 36.464642 118.069473
vt 72.929260 182.323135
vt 109.393883 118.069473
vt 145.858505 182.323135
vt 145.858536 64.253662
vt 218.787750 64.253662
vt 291.717010 64.253654
vt -36.464634 118.069473
vt -72.929253 64.253654
vt 0.000014 64.253662
vt 72.929253 64.253654
vt -36.464634 118.069473
vt 255.252380 0.000000
vt -36.464615 0.000000
vt -72.929253 64.253654
vt 36.464634 0.000000
vt 109.393898 0.000000
vt 182.323135 0.000000
vn 0.6455 0.4772 -0.5964
vn 0.6992 0.6804 -0.2193
vn 0.8439 0.3720 0.3866
vn 0.9533 -0.2960 0.0595
vn 0.7725 0.0237 -0.6346
vn -0.6929 -0.3633 -0.6229
vn -0.8007 0.5237 -0.2910
vn 0.0551 0.4419 0.8954
vn 0.0485 -0.3775 0.9247
vn 0.0936 -0.9955 -0.0151
vn -0.2413 0.4631 -0.8528
vn 0.2068 0.9702 0.1264
vn 0.4953 0.2742 0.8243
vn 0.6440 -0.7139 0.2749
vn 0.2422 -0.6563 -0.7145
vn -0.9903 -0.1105 0.0845
vn -0.6885 -0.2494 0.6810
vn -0.6202 -0.4015 0.6740
vn -0.7083 -0.6202 0.3371
vn -0.9307 -0.3645 -0.0311
usemtl Standard_1
s off
f 1/1/1 2/2/1 3/3/1
f 13/4/2 3/3/2 4/5/2
f 14/6/3 15/7/3 5/8/3
f 16/9/4 5/8/4 6/10/4
f 17/11/5 6/10/5 2/2/5
f 2/2/6 11/12/6 7/13/6
f 3/3/7 7/13/7 8/14/7
f 18/15/8 19/16/8 9/17/8
f 5/8/9 9/17/9 10/18/9
f 6/10/10 10/18/10 11/12/10
f 7/13/11 3/3/11 2/2/11
f 8/14/12 4/5/12 3/3/12
f 9/17/13 5/8/13 20/19/13
f 10/18/14 6/10/14 5/8/14
f 11/12/15 2/2/15 6/10/15
f 12/20/16 8/14/16 7/13/16
f 21/21/17 9/17/17 22/22/17
f 23/23/18 10/18/18 9/17/18
f 24/24/19 11/12/19 10/18/19
f 25/25/20 7/13/20 11/12/20
